<svg xmlns="http://www.w3.org/2000/svg">

  <symbol id="internet" viewBox="0 0 512 512">
    <path d="M352 256c0 22.2-1.2 43.6-3.3 64H163.3c-2.2-20.4-3.3-41.8-3.3-64s1.2-43.6 3.3-64H348.7c2.2 20.4 3.3 41.8 3.3 64zm28.8-64H503.9c5.3 20.5 8.1 41.9 8.1 64s-2.8 43.5-8.1 64H380.8c2.1-20.6 3.2-42 3.2-64s-1.1-43.4-3.2-64zm112.6-32H376.7c-10-63.9-29.8-117.4-55.3-151.6c78.3 20.7 142 77.5 171.9 151.6zm-149.1 0H167.7c6.1-36.4 15.5-68.6 27-94.7c10.5-23.6 22.2-40.7 33.5-51.5C239.4 3.2 248.7 0 256 0s16.6 3.2 27.8 13.8c11.3 10.8 23 27.9 33.5 51.5c11.6 26 21 58.2 27 94.7zm-209 0H18.6C48.6 85.9 112.2 29.1 190.6 8.4C165.1 42.6 145.3 96.1 135.3 160zM8.1 192H131.2c-2.1 20.6-3.2 42-3.2 64s1.1 43.4 3.2 64H8.1C2.8 299.5 0 278.1 0 256s2.8-43.5 8.1-64zM194.7 446.6c-11.6-26-20.9-58.2-27-94.6H344.3c-6.1 36.4-15.5 68.6-27 94.6c-10.5 23.6-22.2 40.7-33.5 51.5C272.6 508.8 263.3 512 256 512s-16.6-3.2-27.8-13.8c-11.3-10.8-23-27.9-33.5-51.5zM135.3 352c10 63.9 29.8 117.4 55.3 151.6C112.2 482.9 48.6 426.1 18.6 352H135.3zm358.1 0c-30 74.1-93.6 130.9-171.9 151.6c25.5-34.2 45.2-87.7 55.3-151.6H493.4z"/>
  </symbol>

  <symbol id="instagram" viewBox="0 0 448 512">
    <path d="M224.1 141c-63.6 0-114.9 51.3-114.9 114.9s51.3 114.9 114.9 114.9S339 319.5 339 255.9 287.7 141 224.1 141zm0 189.6c-41.1 0-74.7-33.5-74.7-74.7s33.5-74.7 74.7-74.7 74.7 33.5 74.7 74.7-33.6 74.7-74.7 74.7zm146.4-194.3c0 14.9-12 26.8-26.8 26.8-14.9 0-26.8-12-26.8-26.8s12-26.8 26.8-26.8 26.8 12 26.8 26.8zm76.1 27.2c-1.7-35.9-9.9-67.7-36.2-93.9-26.2-26.2-58-34.4-93.9-36.2-37-2.1-147.9-2.1-184.9 0-35.8 1.7-67.6 9.9-93.9 36.1s-34.4 58-36.2 93.9c-2.1 37-2.1 147.9 0 184.9 1.7 35.9 9.9 67.7 36.2 93.9s58 34.4 93.9 36.2c37 2.1 147.9 2.1 184.9 0 35.9-1.7 67.7-9.9 93.9-36.2 26.2-26.2 34.4-58 36.2-93.9 2.1-37 2.1-147.8 0-184.8zM398.8 388c-7.8 19.6-22.9 34.7-42.6 42.6-29.5 11.7-99.5 9-132.1 9s-102.7 2.6-132.1-9c-19.6-7.8-34.7-22.9-42.6-42.6-11.7-29.5-9-99.5-9-132.1s-2.6-102.7 9-132.1c7.8-19.6 22.9-34.7 42.6-42.6 29.5-11.7 99.5-9 132.1-9s102.7-2.6 132.1 9c19.6 7.8 34.7 22.9 42.6 42.6 11.7 29.5 9 99.5 9 132.1s2.7 102.7-9 132.1z"/>
  </symbol>

  <symbol id="email" viewBox="0 0 512 512">
    <path d="M64 112c-8.8 0-16 7.2-16 16v22.1L220.5 291.7c20.7 17 50.4 17 71.1 0L464 150.1V128c0-8.8-7.2-16-16-16H64zM48 212.2V384c0 8.8 7.2 16 16 16H448c8.8 0 16-7.2 16-16V212.2L322 328.8c-38.4 31.5-93.7 31.5-132 0L48 212.2zM0 128C0 92.7 28.7 64 64 64H448c35.3 0 64 28.7 64 64V384c0 35.3-28.7 64-64 64H64c-35.3 0-64-28.7-64-64V128z"/>
  </symbol>

  <symbol id="location" viewBox="0 0 512 512">
    <path d="M256 0c17.7 0 32 14.3 32 32V66.7C368.4 80.1 431.9 143.6 445.3 224H480c17.7 0 32 14.3 32 32s-14.3 32-32 32H445.3C431.9 368.4 368.4 431.9 288 445.3V480c0 17.7-14.3 32-32 32s-32-14.3-32-32V445.3C143.6 431.9 80.1 368.4 66.7 288H32c-17.7 0-32-14.3-32-32s14.3-32 32-32H66.7C80.1 143.6 143.6 80.1 224 66.7V32c0-17.7 14.3-32 32-32zM128 256a128 128 0 1 0 256 0 128 128 0 1 0 -256 0zm128-80a80 80 0 1 1 0 160 80 80 0 1 1 0-160z"/>
  </symbol>

  <symbol id="facebook" viewBox="0 0 512 512">
    <path d="M400 32H48A48 48 0 0 0 0 80v352a48 48 0 0 0 48 48h137.25V327.69h-63V256h63v-54.64c0-62.15 37-96.48 93.67-96.48 27.14 0 55.52 4.84 55.52 4.84v61h-31.27c-30.81 0-40.42 19.12-40.42 38.73V256h68.78l-11 71.69h-57.78V480H400a48 48 0 0 0 48-48V80a48 48 0 0 0-48-48z"/>
  </symbol>

  <symbol id="twitter" viewBox="0 0 512 512">
    <path d="M400 32H48C21.5 32 0 53.5 0 80v352c0 26.5 21.5 48 48 48h352c26.5 0 48-21.5 48-48V80c0-26.5-21.5-48-48-48zm-48.9 158.8c.2 2.8.2 5.7.2 8.5 0 86.7-66 186.6-186.6 186.6-37.2 0-71.7-10.8-100.7-29.4 5.3.6 10.4.8 15.8.8 30.7 0 58.9-10.4 81.4-28-28.8-.6-53-19.5-61.3-45.5 10.1 1.5 19.2 1.5 29.6-1.2-30-6.1-52.5-32.5-52.5-64.4v-.8c8.7 4.9 18.9 7.9 29.6 8.3a65.447 65.447 0 0 1-29.2-54.6c0-12.2 3.2-23.4 8.9-33.1 32.3 39.8 80.8 65.8 135.2 68.6-9.3-44.5 24-80.6 64-80.6 18.9 0 35.9 7.9 47.9 20.7 14.8-2.8 29-8.3 41.6-15.8-4.9 15.2-15.2 28-28.8 36.1 13.2-1.4 26-5.1 37.8-10.2-8.9 13.1-20.1 24.7-32.9 34z"/>
  </symbol>

  <symbol id="linkedin" viewBox="0 0 448 512">
    <path d="M416 32H31.9C14.3 32 0 46.5 0 64.3v383.4C0 465.5 14.3 480 31.9 480H416c17.6 0 32-14.5 32-32.3V64.3c0-17.8-14.4-32.3-32-32.3zM135.4 416H69V202.2h66.5V416zm-33.2-243c-21.3 0-38.5-17.3-38.5-38.5S80.9 96 102.2 96c21.2 0 38.5 17.3 38.5 38.5 0 21.3-17.2 38.5-38.5 38.5zm282.1 243h-66.4V312c0-24.8-.5-56.7-34.5-56.7-34.6 0-39.9 27-39.9 54.9V416h-66.4V202.2h63.7v29.2h.9c8.9-16.8 30.6-34.5 62.9-34.5 67.2 0 79.7 44.3 79.7 101.9V416z"/>
  </symbol>

  <symbol id="hamburger" viewBox="0 0 512 512">
    <path fill="none" stroke="currentColor" stroke-linecap="round" stroke-miterlimit="10" stroke-width="32" d="M80 160h352M80 256h352M80 352h352"/>
  </symbol>

  <symbol id="down-arrow" viewBox="0 0 13.414 8.121">
    <path d="m.707.707 6 6 6-6" fill="none" stroke="currentColor" stroke-width="2"/>
  </symbol>

  <symbol id="pb-logo" viewBox="0 0 380 82">
        <defs>
          <style>
            .cls-1 {
              fill: #333;
            }

            .cls-1, .cls-2 {
              fill-rule: evenodd;
            }

            .cls-2 {
              fill: #ffb600;
            }
          </style>
        </defs>
        <path id="Peoplebank_copy" data-name="Peoplebank copy" class="cls-1" d="M4.66,10.48V51.568Q4.66,54,7.284,54H14a2.178,2.178,0,0,0,2.5-2.432V37.936h3.776q7.935,0,12.864-4.032A13.653,13.653,0,0,0,38,22.9q0-7.68-4.8-11.3T18.42,7.984H7.284q-2.625,0-2.624,2.5h0ZM25.908,22.9q0,6.336-6.72,6.336H16.5V16.688h2.688q6.72,0,6.72,6.208h0Zm44.144,2.112q-3.84-5.119-12.416-5.12-7.68,0-12.48,4.8Q40.419,29.425,40.42,37.3q0,8.129,4.96,12.8t13.728,4.672A30.85,30.85,0,0,0,69.22,53.3a3.143,3.143,0,0,0,1.632-.96,2.557,2.557,0,0,0,.352-1.664l-0.32-3.648a1.4,1.4,0,0,0-1.472-1.6,15.133,15.133,0,0,0-3.072.832,16.1,16.1,0,0,1-5.248.832q-7.936,0-9.088-6.4H71.332q2.559,0,2.56-2.112Q73.892,30.128,70.052,25.008ZM53.764,29.136a5.691,5.691,0,0,1,4.384-1.76q5.311,0,5.376,6.784H51.876A8.1,8.1,0,0,1,53.764,29.136Zm37.288,2.016a5.962,5.962,0,0,1,10.048,0,10.852,10.852,0,0,1,1.856,6.208,11.046,11.046,0,0,1-1.856,6.208,6.039,6.039,0,0,1-10.048,0A11.123,11.123,0,0,1,89.26,37.36a10.738,10.738,0,0,1,1.792-6.208h0ZM82.668,50.16q5.311,4.608,13.44,4.608t13.376-4.608q5.312-4.735,5.312-12.8,0-8.191-5.312-12.8-5.248-4.671-13.376-4.672-8.193,0-13.44,4.672-5.248,4.608-5.248,12.8,0,8.129,5.248,12.8h0Zm48.808,18.112V50.544H131.6q3.456,4.224,10.176,4.224a12.411,12.411,0,0,0,10.432-4.928,18.879,18.879,0,0,0,3.84-11.968q0-8-3.52-12.928-3.456-5.055-10.624-5.056a13.414,13.414,0,0,0-6.08,1.408,10.913,10.913,0,0,0-4.416,3.9H131.22V22.96a2.009,2.009,0,0,0-2.24-2.3h-6.72a2.008,2.008,0,0,0-2.24,2.3V68.272a2.008,2.008,0,0,0,2.24,2.3h6.976a2.009,2.009,0,0,0,2.24-2.3h0Zm11.04-37.152a10.946,10.946,0,0,1,1.7,6.432,9.964,9.964,0,0,1-1.7,6.144,5.633,5.633,0,0,1-4.768,2.24,5.323,5.323,0,0,1-4.576-2.4,10.939,10.939,0,0,1-1.7-6.432,10.649,10.649,0,0,1,1.664-5.824,5.231,5.231,0,0,1,4.736-2.56A5.383,5.383,0,0,1,142.516,31.12Zm19.528,16.288a11.548,11.548,0,0,0,1.792,3.712q2.815,3.264,8.448,3.264a17.548,17.548,0,0,0,6.144-.832,3.971,3.971,0,0,0,1.472-.9,1.909,1.909,0,0,0,.384-1.28V47.408q0-2.175-1.6-2.176a9.967,9.967,0,0,0-1.44.224,9.4,9.4,0,0,1-1.7.224,2.414,2.414,0,0,1-2.4-1.5,13.162,13.162,0,0,1-.672-4.96V6.768a2.009,2.009,0,0,0-2.24-2.3H163.26a2.008,2.008,0,0,0-2.24,2.3V37.936a36.87,36.87,0,0,0,1.024,9.472h0Zm49.008-22.4q-3.84-5.119-12.416-5.12-7.68,0-12.48,4.8-4.737,4.737-4.736,12.608,0,8.129,4.96,12.8t13.728,4.672A30.85,30.85,0,0,0,210.22,53.3a3.143,3.143,0,0,0,1.632-.96,2.557,2.557,0,0,0,.352-1.664l-0.32-3.648a1.4,1.4,0,0,0-1.472-1.6,15.133,15.133,0,0,0-3.072.832,16.1,16.1,0,0,1-5.248.832q-7.937,0-9.088-6.4h19.328q2.559,0,2.56-2.112Q214.892,30.128,211.052,25.008Zm-16.288,4.128a5.691,5.691,0,0,1,4.384-1.76q5.311,0,5.376,6.784H192.876A8.1,8.1,0,0,1,194.764,29.136ZM231.22,51.7V50.544h0.128q3.456,4.224,10.432,4.224,6.783,0,10.5-4.864a19.611,19.611,0,0,0,3.776-12.288q0-7.935-3.52-12.8-3.585-4.927-10.752-4.928-6.72,0-10.112,4.544h-0.192V6.768a2.009,2.009,0,0,0-2.24-2.3H222.26a2.008,2.008,0,0,0-2.24,2.3V51.7a2.008,2.008,0,0,0,2.24,2.3h6.72a2.009,2.009,0,0,0,2.24-2.3h0Zm11.3-20.576a10.946,10.946,0,0,1,1.7,6.432,9.964,9.964,0,0,1-1.7,6.144,5.633,5.633,0,0,1-4.768,2.24,5.323,5.323,0,0,1-4.576-2.4,10.939,10.939,0,0,1-1.7-6.432,10.649,10.649,0,0,1,1.664-5.824,5.231,5.231,0,0,1,4.736-2.56A5.383,5.383,0,0,1,242.516,31.12Zm20.872-6.24a18.71,18.71,0,0,0-3.968,11.9q0,7.872,3.712,12.928T274.2,54.768a12.219,12.219,0,0,0,9.664-4.352h0.384V51.7a2.008,2.008,0,0,0,2.24,2.3h6.592a2.009,2.009,0,0,0,2.24-2.3V22.96a2.009,2.009,0,0,0-2.24-2.3h-6.976a2.008,2.008,0,0,0-2.24,2.3v1.152h-0.32q-3.456-4.224-10.048-4.224a12.482,12.482,0,0,0-10.112,4.992h0Zm9.632,18.656a10.64,10.64,0,0,1-1.76-6.432,9.66,9.66,0,0,1,1.792-6.048,5.74,5.74,0,0,1,4.8-2.336,5.186,5.186,0,0,1,4.512,2.368,11.109,11.109,0,0,1,1.632,6.4,10.811,10.811,0,0,1-1.568,6.08,5.266,5.266,0,0,1-4.7,2.368A5.544,5.544,0,0,1,273.02,43.536Zm40.456,8.16V39.408q0-9.919,6.4-9.92a3.935,3.935,0,0,1,3.84,2.144q1.087,2.145,1.088,7.456V51.7a2.008,2.008,0,0,0,2.24,2.3h6.976a2.009,2.009,0,0,0,2.24-2.3V33.264q0-6.272-3.264-9.824t-9.216-3.552A11.542,11.542,0,0,0,313.6,25.072H313.22V22.96a2.009,2.009,0,0,0-2.24-2.3h-6.72a2.008,2.008,0,0,0-2.24,2.3V51.7a2.008,2.008,0,0,0,2.24,2.3h6.976a2.009,2.009,0,0,0,2.24-2.3h0ZM343.02,6.768V51.7a2.008,2.008,0,0,0,2.24,2.3h6.976a2.009,2.009,0,0,0,2.24-2.3V37.936l10.24,14.528A5.137,5.137,0,0,0,366,53.712a4.151,4.151,0,0,0,1.856.288h8.64q1.6,0,1.6-1.216a1.637,1.637,0,0,0-.384-0.96l-12.1-15.68,10.432-13.312a1.448,1.448,0,0,0,.384-0.96q0-1.215-1.6-1.216h-7.936a4.628,4.628,0,0,0-1.856.256,4.69,4.69,0,0,0-1.344,1.408l-9.216,12.352V6.768a2.009,2.009,0,0,0-2.24-2.3H345.26a2.008,2.008,0,0,0-2.24,2.3h0Z"/>
        <path id="arrow_parts_copy" data-name="arrow parts copy" class="cls-2" d="M377.581,69.281l-46.25,10.281,7-8.657H174.215l-9.549,5.952h-5l9.549-5.952h-5.767L153.833,77.4l-5-.541,8.785-5.952h-4.169L143.833,77.4h-5.416l9.29-6.493h-0.874A3.343,3.343,0,0,1,146,69a3.6,3.6,0,0,1,.833-1.884h0.745L138,61.164h5.833l8.021,5.952h6.032l-9.469-5.411,6.249-.541,8.021,5.952h5.729l-9.166-5.952h5l9.548,5.952H338.553L330.914,59Z"/>
      </symbol>

</svg>
